# File created by Blade
# Date/Time:  Wed Jan 21 15:15:22 2015
# Frame Rate: 120.000 fps
#------------------------------------------------------
:FULLY-SPECIFIED
:DEGREES
402
root 17.691444 35.484305 -19.201543 153.099923 -85.185616 -148.263924
Spine -8.743527 0.138974 -0.226956
Head 10.060153 -0.782081 8.670025
LeftShoulder -9.115468 -22.555776 1.255465
LeftArm -16.649857 8.211322 -67.707595
LeftForeArm 0.855284 -0.000000 18.930370
LeftHand -2.477766 0.000000 0.366350
LeftHandThumb1 -26.253704 0.000000 33.147579
RightShoulder -11.201224 -14.203183 12.560965
RightArm 8.310789 2.281798 63.674438
RightForeArm -24.893346 0.000000 15.513772
RightHand -4.780305 0.000000 3.354899
RightHandThumb1 -24.326973 -0.000000 -32.862282
LeftUpLeg -0.726426 3.376337 -6.985249
LeftLeg -3.038970 -0.000000 0.000000
LeftFoot -20.385377 30.954066 -5.657454
LeftToeBase 24.242007 -0.000000 -0.000000
RightUpLeg -12.973682 -0.403040 -4.393221
RightLeg 66.323702 -0.000000 -0.000000
RightFoot -16.399406 -31.862908 18.150950
RightToeBase 16.237856 -0.000000 -0.000000
403
root 17.673269 35.488954 -19.161445 151.566646 -84.978604 -146.673953
Spine -8.852306 0.130641 0.261161
Head 10.053064 -0.613107 8.391019
LeftShoulder -9.185144 -22.571436 1.217994
LeftArm -16.728985 8.090838 -67.720771
LeftForeArm 0.785278 -0.000000 18.774263
LeftHand -2.401379 -0.000000 0.316012
LeftHandThumb1 -26.253704 0.000000 33.147579
RightShoulder -11.172501 -14.340325 12.405325
RightArm 8.182611 2.183852 63.439722
RightForeArm -24.735473 0.000000 15.445757
RightHand -4.809680 -0.000000 3.426005
RightHandThumb1 -24.326973 -0.000000 -32.862282
LeftUpLeg -0.679078 3.488195 -6.852847
LeftLeg -3.183392 -0.000000 0.000000
LeftFoot -20.345747 30.999431 -5.466651
LeftToeBase 24.169472 -0.000000 -0.000000
RightUpLeg -13.309812 -0.240735 -4.568882
RightLeg 69.280024 -0.000000 -0.000000
RightFoot -13.911127 -31.477821 17.230534
RightToeBase 17.736935 -0.000000 -0.000000
404
root 17.656835 35.493582 -19.118366 150.385529 -84.729248 -145.387737
Spine -9.019361 0.204356 0.774909
Head 10.045756 -0.476404 8.063808
LeftShoulder -9.226529 -22.533060 1.139355
LeftArm -16.788204 7.986193 -67.742049
LeftForeArm 0.595303 -0.000000 18.624973
LeftHand -2.376861 -0.000000 0.202463
LeftHandThumb1 -26.253704 0.000000 33.147579
RightShoulder -11.150625 -14.445813 12.200736
RightArm 7.954131 2.199310 63.270396
RightForeArm -24.733951 -0.000000 15.472694
RightHand -5.011970 0.000000 3.491061
RightHandThumb1 -24.326973 -0.000000 -32.862282
LeftUpLeg -0.694995 3.646758 -6.722423
LeftLeg -3.305542 -0.000000 0.000000
LeftFoot -20.334733 31.039728 -5.298879
LeftToeBase 24.172717 -0.000000 -0.000000
RightUpLeg -13.683174 -0.113281 -4.766093
RightLeg 72.156205 -0.000000 -0.000000
RightFoot -11.162510 -31.164632 15.983052
RightToeBase 18.338559 -0.000000 -0.000000
405
root 17.634925 35.498490 -19.074997 148.715635 -84.591190 -143.669814
Spine -9.119259 0.133640 1.272290
Head 10.043297 -0.320734 7.752673
LeftShoulder -9.300151 -22.497790 1.079757
LeftArm -16.857165 7.891616 -67.789305
LeftForeArm 0.414322 0.000000 18.483911
LeftHand -2.306041 0.000000 0.461090
LeftHandThumb1 -26.253704 0.000000 33.147579
RightShoulder -11.125833 -14.512386 12.005632
RightArm 7.742016 2.146472 63.063979
RightForeArm -24.771135 -0.000000 15.376316
RightHand -5.010530 -0.000000 3.640381
RightHandThumb1 -24.326973 -0.000000 -32.862282
LeftUpLeg -0.664247 3.695977 -6.601917
LeftLeg -3.385244 -0.000000 0.000000
LeftFoot -20.344261 31.057525 -5.177944
LeftToeBase 24.190956 -0.000000 -0.000000
RightUpLeg -13.925672 -0.128246 -5.000101
RightLeg 74.979932 -0.000000 -0.000000
RightFoot -8.810401 -30.779692 14.862271
RightToeBase 19.530267 -0.000000 -0.000000
406
root 17.629198 35.505404 -19.032376 147.932101 -84.312018 -142.734916
Spine -9.303533 0.204481 1.781459
Head 10.019051 -0.131465 7.475197
LeftShoulder -9.397004 -22.450316 1.048679
LeftArm -16.881276 7.836703 -67.860777
LeftForeArm 0.155469 -0.000000 18.272728
LeftHand -2.411116 0.000000 0.314906
LeftHandThumb1 -26.253704 0.000000 33.147579
RightShoulder -11.098723 -14.576026 11.859808
RightArm 7.480517 1.826047 62.770266
RightForeArm -24.468006 -0.000000 15.453373
RightHand -5.181433 -0.000000 3.475742
RightHandThumb1 -24.326973 -0.000000 -32.862282
LeftUpLeg -0.780748 3.917623 -6.469020
LeftLeg -3.437586 -0.000000 0.000000
LeftFoot -20.342308 31.038301 -5.029291
LeftToeBase 24.204883 -0.000000 -0.000000
RightUpLeg -14.332785 -0.058822 -5.238494
RightLeg 77.788132 -0.000000 -0.000000
RightFoot -6.476689 -30.296456 13.830599
RightToeBase 19.626876 -0.000000 -0.000000
407
root 17.629142 35.515005 -18.989541 146.905043 -84.135369 -141.400061
Spine -9.697193 0.213146 2.266763
Head 10.050996 -0.005813 7.187800
LeftShoulder -9.447986 -22.396602 1.007061
LeftArm -16.991725 7.702438 -67.915994
LeftForeArm 0.165888 0.000000 18.104530
LeftHand -2.444173 -0.000000 0.154154
LeftHandThumb1 -26.253704 0.000000 33.147579
RightShoulder -11.213862 -14.736683 11.717225
RightArm 7.412691 1.882119 62.596626
RightForeArm -24.619885 -0.000000 15.313584
RightHand -5.268498 -0.000000 3.444360
RightHandThumb1 -24.326973 -0.000000 -32.862282
LeftUpLeg -1.158678 4.151373 -6.357856
LeftLeg -3.297958 -0.000000 0.000000
LeftFoot -20.399307 30.843940 -4.922193
LeftToeBase 24.200578 -0.000000 -0.000000
RightUpLeg -14.864919 -0.121336 -5.512779
RightLeg 80.546912 -0.000000 -0.000000
RightFoot -4.299268 -29.866744 12.767188
RightToeBase 21.067449 -0.000000 -0.000000
